<?xml version="1.0" encoding="UTF-8" standalone="no"?>
<svg
   version="1.0"
   width="206.91382pt"
   height="206.08228pt"
   viewBox="0 0 206.91382 206.08228"
   preserveAspectRatio="xMidYMid"
   id="svg104"
   sodipodi:docname="favicon.svg"
   inkscape:version="1.2.2 (1:1.2.2+202212051552+b0a8486541)"
   inkscape:export-filename="../png/favicon.png"
   inkscape:export-xdpi="22.27014"
   inkscape:export-ydpi="22.27014"
   xmlns:inkscape="http://www.inkscape.org/namespaces/inkscape"
   xmlns:sodipodi="http://sodipodi.sourceforge.net/DTD/sodipodi-0.dtd"
   xmlns:xlink="http://www.w3.org/1999/xlink"
   xmlns="http://www.w3.org/2000/svg"
   xmlns:svg="http://www.w3.org/2000/svg">
  <defs
     id="defs108">
    <radialGradient
       cx="91.25"
       cy="85"
       fx="91.25"
       fy="85"
       gradientTransform="matrix(1,0,0,0.07792208,0,78.376623)"
       gradientUnits="userSpaceOnUse"
       id="radialGradient5580"
       inkscape:collect="always"
       r="19.25"
       xlink:href="#linearGradient3602" />
    <linearGradient
       id="linearGradient3602"
       inkscape:collect="always">
      <stop
         id="stop3604"
         offset="0"
         style="stop-color:#232323;stop-opacity:1;" />
      <stop
         id="stop3606"
         offset="1"
         style="stop-color:#232323;stop-opacity:0;" />
    </linearGradient>
    <linearGradient
       gradientTransform="matrix(0.1336252,-0.1305156,0.1426648,0.1393449,-0.8055683,100.84744)"
       gradientUnits="userSpaceOnUse"
       id="linearGradient3172"
       inkscape:collect="always"
       x1="287.08661"
       x2="410.54526"
       xlink:href="#linearGradient4573"
       y1="342.85242"
       y2="342.85242" />
    <linearGradient
       id="linearGradient4573">
      <stop
         id="stop4575"
         offset="0"
         style="stop-color: rgb(26, 26, 26); stop-opacity: 1;" />
      <stop
         id="stop4577"
         offset="0.14200485"
         style="stop-color: rgb(122, 122, 122); stop-opacity: 1;" />
      <stop
         id="stop4579"
         offset="0.48171476"
         style="stop-color: rgb(48, 48, 48); stop-opacity: 1;" />
      <stop
         id="stop4581"
         offset="0.81476736"
         style="stop-color: rgb(103, 103, 103); stop-opacity: 1;" />
      <stop
         id="stop4583"
         offset="1"
         style="stop-color: rgb(40, 40, 40); stop-opacity: 1;" />
      <stop
         id="stop4585"
         offset="1"
         style="stop-color: rgb(26, 26, 26); stop-opacity: 0;" />
    </linearGradient>
    <linearGradient
       gradientTransform="matrix(0.1777057,0,0,0.04842105,-47.129308,155.18222)"
       gradientUnits="userSpaceOnUse"
       id="linearGradient3169"
       inkscape:collect="always"
       x1="207.1693"
       x2="288.19095"
       xlink:href="#linearGradient4515"
       y1="347.6752"
       y2="348.70078" />
    <linearGradient
       id="linearGradient4515">
      <stop
         id="stop4517"
         offset="0"
         style="stop-color: rgb(179, 179, 179); stop-opacity: 1;" />
      <stop
         id="stop4523"
         offset="0.32894948"
         style="stop-color: rgb(221, 221, 221); stop-opacity: 1;" />
      <stop
         id="stop4525"
         offset="0.56467408"
         style="stop-color: rgb(171, 171, 171); stop-opacity: 1;" />
      <stop
         id="stop4527"
         offset="0.88842005"
         style="stop-color: rgb(221, 221, 221); stop-opacity: 1;" />
      <stop
         id="stop4529"
         offset="1"
         style="stop-color: rgb(174, 174, 174); stop-opacity: 1;" />
      <stop
         id="stop4519"
         offset="1"
         style="stop-color: rgb(179, 179, 179); stop-opacity: 0;" />
    </linearGradient>
    <radialGradient
       cx="45"
       cy="49.404987"
       fx="45"
       fy="49.404987"
       gradientTransform="matrix(1.6274039,6.3124572e-8,-4.912583e-8,1.2513553,-28.233175,-11.819715)"
       gradientUnits="userSpaceOnUse"
       id="radialGradient3166"
       inkscape:collect="always"
       r="40"
       xlink:href="#linearGradient5480" />
    <linearGradient
       id="linearGradient5480">
      <stop
         id="stop5482"
         offset="0"
         style="stop-color:#cff5f5;stop-opacity:1;" />
      <stop
         id="stop5484"
         offset="1"
         style="stop-color:#d5f6f6;stop-opacity:1;" />
    </linearGradient>
    <linearGradient
       gradientTransform="matrix(0.1877485,1.2251219e-8,0,0.1995567,-44.253453,-177.27295)"
       gradientUnits="userSpaceOnUse"
       id="linearGradient3163"
       inkscape:collect="always"
       x1="207.1693"
       x2="288.19095"
       xlink:href="#linearGradient4515"
       y1="347.6752"
       y2="348.70078" />
    <filter
       color-interpolation-filters="sRGB"
       height="1.2780947"
       id="filter3270"
       inkscape:collect="always"
       width="1.2463491"
       x="-0.12206154"
       y="-0.13786403">
      <feGaussianBlur
         id="feGaussianBlur3272"
         inkscape:collect="always"
         stdDeviation="0.45134615" />
    </filter>
    <filter
       color-interpolation-filters="sRGB"
       id="filter3279"
       inkscape:collect="always"
       x="-0.076791825"
       y="-0.067771074"
       width="1.1535836"
       height="1.1355421">
      <feGaussianBlur
         id="feGaussianBlur3281"
         inkscape:collect="always"
         stdDeviation="1.6511845" />
    </filter>
    <linearGradient
       gradientUnits="userSpaceOnUse"
       id="linearGradient2898"
       inkscape:collect="always"
       x1="59.899395"
       x2="89.760323"
       xlink:href="#linearGradient3287"
       y1="29.98637"
       y2="20.120985" />
    <linearGradient
       id="linearGradient3287"
       inkscape:collect="always">
      <stop
         id="stop3289"
         offset="0"
         style="stop-color:#f5f5f5;stop-opacity:1;" />
      <stop
         id="stop3291"
         offset="1"
         style="stop-color:#f5f5f5;stop-opacity:0;" />
    </linearGradient>
    <filter
       color-interpolation-filters="sRGB"
       id="filter3295"
       inkscape:collect="always"
       x="-0.050292554"
       y="-0.045907341"
       width="1.1005851"
       height="1.0918147">
      <feGaussianBlur
         id="feGaussianBlur3297"
         inkscape:collect="always"
         stdDeviation="1.0556346" />
    </filter>
    <radialGradient
       cx="70.886208"
       cy="169.08113"
       fx="70.886208"
       fy="169.08113"
       gradientTransform="matrix(3.4601945e-4,0.2180681,-0.2369874,3.5897955e-4,85.297742,13.471166)"
       gradientUnits="userSpaceOnUse"
       id="radialGradient3153"
       inkscape:collect="always"
       r="150"
       xlink:href="#linearGradient4422" />
    <linearGradient
       id="linearGradient4422">
      <stop
         id="stop4424"
         offset="0"
         style="stop-color: rgb(242, 242, 242); stop-opacity: 1;" />
      <stop
         id="stop4426"
         offset="1"
         style="stop-color: rgb(242, 242, 242); stop-opacity: 0;" />
    </linearGradient>
    <radialGradient
       cx="181.92917"
       cy="353.07816"
       fx="181.92917"
       fy="353.07816"
       gradientTransform="matrix(4.7818007e-4,-0.4886765,1.4476145,0.00141279,-464.35643,168.50142)"
       gradientUnits="userSpaceOnUse"
       id="radialGradient3150"
       inkscape:collect="always"
       r="132.5"
       xlink:href="#linearGradient4444-784" />
    <linearGradient
       id="linearGradient4444-784">
      <stop
         id="stop3294"
         offset="0"
         style="stop-color:#ffffff;stop-opacity:0.96078432;" />
      <stop
         id="stop3296"
         offset="1"
         style="stop-color:#fafafa;stop-opacity:0;" />
    </linearGradient>
    <filter
       color-interpolation-filters="sRGB"
       id="filter3229"
       inkscape:collect="always"
       x="-0.033910868"
       y="-0.35097742"
       width="1.0678217"
       height="1.7019548">
      <feGaussianBlur
         id="feGaussianBlur3231"
         inkscape:collect="always"
         stdDeviation="3.0115161" />
    </filter>
    <filter
       color-interpolation-filters="sRGB"
       id="filter3235"
       inkscape:collect="always"
       x="-0.042477532"
       y="-0.43964238"
       width="1.0849551"
       height="1.8792848">
      <feGaussianBlur
         id="feGaussianBlur3237"
         inkscape:collect="always"
         stdDeviation="3.7722942" />
    </filter>
    <radialGradient
       cx="57.749779"
       cy="52.062233"
       fx="57.749779"
       fy="52.062233"
       gradientTransform="matrix(1.8826372,-0.00282027,0.00106436,4.4090061,-51.027834,-162.03425)"
       gradientUnits="userSpaceOnUse"
       id="radialGradient2868"
       inkscape:collect="always"
       r="15.384615"
       xlink:href="#linearGradient3465" />
    <linearGradient
       id="linearGradient3465">
      <stop
         id="stop3467"
         offset="0"
         style="stop-color:#282828;stop-opacity:0.96078432;" />
      <stop
         id="stop3469"
         offset="1"
         style="stop-color:#ffffff;stop-opacity:1;" />
    </linearGradient>
    <filter
       color-interpolation-filters="sRGB"
       id="filter3496"
       inkscape:collect="always"
       x="-0.058137173"
       y="-0.059636201"
       width="1.1162743"
       height="1.1192724">
      <feGaussianBlur
         id="feGaussianBlur3498"
         inkscape:collect="always"
         stdDeviation="0.81442315" />
    </filter>
  </defs>
  <sodipodi:namedview
     id="namedview106"
     pagecolor="#565656"
     bordercolor="#666666"
     borderopacity="1.0"
     inkscape:showpageshadow="2"
     inkscape:pageopacity="0"
     inkscape:pagecheckerboard="0"
     inkscape:deskcolor="#d1d1d1"
     inkscape:document-units="pt"
     showgrid="false"
     inkscape:zoom="2.1688363"
     inkscape:cx="230.0773"
     inkscape:cy="179.81993"
     inkscape:window-width="1918"
     inkscape:window-height="1037"
     inkscape:window-x="0"
     inkscape:window-y="18"
     inkscape:window-maximized="1"
     inkscape:current-layer="svg104" />
  <g
     transform="matrix(0.08814854,0,0,-0.08814854,-1.9847134,207.34672)"
     fill="#000000"
     stroke="none"
     id="g102"
     style="fill:#ffffff;fill-opacity:1">
    <path
       d="M 970,2301 C 665,2233 415,2064 243,1808 -58,1357 2,752 386,366 501,250 676,138 808,95 c 49,-16 55,-16 77,-1 24,16 25,20 25,135 v 118 l -88,-5 c -103,-5 -183,13 -231,54 -17,14 -50,62 -73,106 -38,74 -66,108 -144,177 -26,23 -27,24 -9,37 43,32 130,1 185,-65 96,-117 133,-148 188,-160 49,-10 94,-6 162,14 9,3 21,24 27,48 6,23 22,58 35,77 l 24,35 -81,16 c -170,35 -275,96 -344,200 -64,96 -85,179 -86,334 0,146 16,206 79,288 28,36 31,47 23,68 -15,36 -11,188 5,234 13,34 20,40 47,43 45,5 129,-24 214,-72 l 73,-42 64,15 c 91,21 364,20 446,0 l 62,-16 58,35 c 77,46 175,82 224,82 39,0 39,-1 55,-52 17,-59 20,-166 5,-217 -8,-30 -6,-39 16,-68 109,-144 121,-383 29,-579 -62,-129 -193,-219 -369,-252 l -84,-16 31,-55 32,-56 3,-223 4,-223 25,-16 c 23,-15 28,-15 76,2 80,27 217,101 292,158 446,334 590,933 343,1431 -145,293 -419,518 -733,602 -137,36 -395,44 -525,15 z"
       id="path100"
       style="fill:#ffffff;fill-opacity:1" />
  </g>
  <g
     id="g3377"
     style="display:inline;enable-background:new"
     transform="matrix(1.6486582,0,0,1.6486582,-7.4117313,-6.0182132)">
    <ellipse
       id="path3600"
       style="display:inline;overflow:visible;visibility:visible;opacity:0.5;fill:url(#radialGradient5580);fill-opacity:1;fill-rule:nonzero;stroke:none;stroke-width:1;marker:none;enable-background:new"
       transform="matrix(3.116883,0,0,1.6608439,-214.41558,-13.662997)"
       cx="91.25"
       cy="85"
       rx="19.25"
       ry="1.5" />
    <path
       d="m 70.039588,80.328709 9.897171,-8.310448 c 0,0 19.522939,19.595943 27.741561,27.623326 5.39159,5.266143 17.87566,17.794593 17.87566,17.794593 l -8.58931,8.24272 c 0,0 -12.37555,-12.08758 -17.679349,-17.26797 C 90.978915,100.2978 70.039588,80.328709 70.039588,80.328709 Z"
       id="rect3074"
       sodipodi:nodetypes="ccsccsc"
       style="fill:url(#linearGradient3172);fill-opacity:1;fill-rule:nonzero;stroke:none" />
    <rect
       height="2.5174174"
       id="rect4587"
       style="fill:url(#linearGradient3169);fill-opacity:1;fill-rule:nonzero;stroke:#afafaf;stroke-width:0.111314;stroke-linecap:square;stroke-linejoin:round;stroke-miterlimit:4;stroke-dasharray:none;stroke-dashoffset:0;stroke-opacity:1"
       transform="matrix(0.71538099,-0.69873459,0.71538099,0.69873459,0,0)"
       width="12.121526"
       x="-8.3092728"
       y="170.77554" />
    <path
       d="M 42.720842,7.3957249 C 21.990913,7.0353236 0.44501313,30.23021 5.8407582,53.136515 7.4211756,59.845783 12.781509,64.124339 14.97936,69.980663 19.832257,72.744958 42.174732,84.842169 47.797786,84.997345 54.327662,85.177547 84.671199,76.206486 84.995593,52.256258 85.166234,39.657863 80.352913,27.330995 75.551513,19.017151 67.606188,14.967094 50.816506,7.3957249 42.720842,7.3957249 Z"
       id="path4454"
       sodipodi:nodetypes="cscsscc"
       style="opacity:0.6;fill:url(#radialGradient3166);fill-opacity:1;fill-rule:nonzero;stroke:none" />
    <rect
       height="10.642502"
       id="rect4513"
       style="fill:url(#linearGradient3163);fill-opacity:1;fill-rule:nonzero;stroke:#afafaf;stroke-width:0.232276;stroke-linecap:square;stroke-linejoin:round;stroke-miterlimit:4;stroke-dasharray:none;stroke-dashoffset:0;stroke-opacity:1"
       transform="matrix(-0.7076796,0.7065335,-0.7229965,-0.6908517,0,0)"
       width="13.093606"
       x="-3.2396598"
       y="-113.00861" />
    <g
       id="g2828">
      <path
         d="m 68.931575,78.448161 c 2.426701,-3.184597 5.506456,-6.140688 8.815515,-8.431746 0.562386,-0.38937 2.359517,0.623126 2.286719,1.212203 -0.107965,0.873675 -1.298144,1.86312 -2.097417,2.711588 -1.384894,1.47014 -2.874802,2.963802 -4.528247,4.137055 -1.349094,0.957298 -2.795271,2.017254 -3.302368,2.200198 -0.524854,0.189351 -1.526273,-1.367267 -1.174202,-1.829298 z"
         id="rect4689"
         sodipodi:nodetypes="cssssss"
         style="opacity:0.15;fill:#000000;fill-opacity:1;fill-rule:nonzero;stroke:none" />
      <path
         d="m 70.442308,80.480769 c 3.8215,-2.691007 6.850277,-5.157554 9.346154,-8.307692"
         id="path3273"
         sodipodi:nodetypes="cc"
         style="fill:none;stroke:#000000;stroke-width:0.2;stroke-linecap:butt;stroke-linejoin:miter;stroke-miterlimit:4;stroke-dasharray:none;stroke-opacity:1;filter:url(#filter3270)" />
    </g>
    <path
       d="M 46.851639,5.1691391 C 23.749533,5.1691391 5,23.482386 5,46.046917 c 0,22.564537 18.749533,40.877781 41.851639,40.877781 23.1021,0 41.851631,-18.313244 41.851631,-40.877781 0,-22.564531 -18.749531,-40.8777779 -41.851631,-40.8777779 z m 0,4.7690747 c 20.406856,0 36.96894,16.1766992 36.96894,36.1087032 0,19.932005 -16.562084,36.108707 -36.96894,36.108707 -20.40686,0 -36.9689471,-16.176702 -36.9689471,-36.108707 0,-19.932004 16.5620871,-36.1087032 36.9689471,-36.1087032 z"
       id="path3072"
       style="fill:#b3b3b3;fill-opacity:1;fill-rule:nonzero;stroke:none" />
    <path
       d="m 26.616815,20.218891 c -18.7985576,18.693527 -6.107907,42.972543 -3.115385,45 14.048588,18.192791 31.572333,13.450581 41.538462,7.788462 C 31.412839,94.83055 -7.4427761,48.781467 26.616815,20.218891 Z"
       id="path3750"
       sodipodi:nodetypes="cccc"
       style="opacity:0.1;fill:#0a0a50;fill-opacity:0.960784;fill-rule:evenodd;stroke:none;filter:url(#filter3279)" />
    <path
       d="M 69.846154,69.954184 C 82.26377,57.406769 83.06234,42.73686 74.865385,28.588806 c -17.58225,-22.4826741 -37.09646,-11.489742 -45,-8.480774 28.81081,-9.423367 66.187592,16.771633 39.980769,49.846152 z"
       id="path3421"
       sodipodi:nodetypes="cccc"
       style="display:inline;opacity:0.6;fill:url(#linearGradient2898);fill-opacity:1;fill-rule:evenodd;stroke:none;filter:url(#filter3295);enable-background:new" />
    <path
       d="m 46.851634,9.9382148 c -20.406855,0 -36.9689421,16.1766972 -36.9689421,36.1087022 0,19.932005 16.5620871,36.108705 36.9689421,36.108707 20.406859,0 36.968943,-16.176705 36.968943,-36.108707 0,-19.932002 -16.562084,-36.1087022 -36.968943,-36.1087022 z m 0,2.0438892 c 19.251753,2e-6 34.876363,15.261038 34.876363,34.064813 0,18.803775 -15.62461,34.064819 -34.876363,34.064819 -19.251749,-5e-6 -34.87636,-15.261042 -34.87636,-34.064819 0,-18.803778 15.624611,-34.064813 34.87636,-34.064813 z"
       id="path3868"
       style="fill:#646464;fill-opacity:0.960784;fill-rule:nonzero;stroke:none" />
    <path
       d="M 47.021019,5 C 23.918914,5 5.169381,23.313247 5.169381,45.877777 c 0,22.564536 18.749533,40.877781 41.851638,40.877781 23.102101,0 41.851632,-18.313245 41.851632,-40.877781 C 88.872651,23.313247 70.12312,5 47.021019,5 Z m 0,4.7690738 c 20.406857,0 36.968942,16.1767002 36.968942,36.1087032 0,19.932005 -16.562085,36.108707 -36.968942,36.108707 -20.406858,0 -36.968945,-16.176702 -36.968945,-36.108707 0,-19.932003 16.562087,-36.1087032 36.968945,-36.1087032 z"
       id="path4420"
       style="fill:url(#radialGradient3153);fill-opacity:1;fill-rule:nonzero;stroke:none" />
    <path
       d="m 46.851639,9.9382148 c -20.40686,0 -36.9689501,16.1766972 -36.9689501,36.1087022 0,19.932005 16.5620901,36.108705 36.9689501,36.108707 20.406856,0 36.96894,-16.176705 36.96894,-36.108707 0,-19.932002 -16.562084,-36.1087022 -36.96894,-36.1087022 z m 0,2.0438892 c 19.25175,2e-6 34.87636,15.261038 34.87636,34.064813 0,18.803775 -15.62461,34.064819 -34.87636,34.064819 -19.251754,-5e-6 -34.876368,-15.261042 -34.876368,-34.064819 0,-18.803778 15.624614,-34.064813 34.876368,-34.064813 z"
       id="path4434"
       style="fill:url(#radialGradient3150);fill-opacity:1;fill-rule:nonzero;stroke:none" />
    <ellipse
       id="path2449"
       style="opacity:0.25;fill:#ffffff;fill-opacity:1;fill-rule:nonzero;stroke:none;filter:url(#filter3229)"
       transform="matrix(0.1800381,0.1778916,-0.168268,0.1247267,149.29564,31.027272)"
       cx="105.53854"
       cy="393.3241"
       rx="106.56818"
       ry="10.296444" />
    <ellipse
       id="path3233"
       style="opacity:0.2;fill:#ffffff;fill-opacity:1;fill-rule:nonzero;stroke:none;filter:url(#filter3235)"
       transform="matrix(0.1643424,0.1634388,-0.07615404,0.04140043,114.48382,65.119159)"
       cx="105.53854"
       cy="393.3241"
       rx="106.56818"
       ry="10.296444" />
    <ellipse
       id="path2693"
       style="fill:none;stroke:url(#radialGradient2868);stroke-width:1;stroke-linejoin:round;stroke-miterlimit:4;stroke-dasharray:none;stroke-opacity:1"
       transform="matrix(2.7530723,0,0,1.105171,-123.73403,0.5163272)"
       cx="61.96154"
       cy="41.192307"
       rx="14.884615"
       ry="36.346153" />
    <path
       d="M 84.115385,77.192308 123.92308,116.48077"
       id="path3476"
       sodipodi:nodetypes="cc"
       style="opacity:0.2;fill:none;stroke:#000000;stroke-width:1px;stroke-linecap:butt;stroke-linejoin:miter;stroke-opacity:1" />
    <path
       d="m 77.057692,84.51923 39.634628,38.76923"
       id="path3490"
       sodipodi:nodetypes="cc"
       style="display:inline;fill:none;stroke:#000000;stroke-width:1px;stroke-linecap:butt;stroke-linejoin:miter;stroke-opacity:1;filter:url(#filter3496);enable-background:new" />
  </g>
</svg>
